<svg xmlns="http://www.w3.org/2000/svg" width="250" height="219" viewBox="0 0 250 219" fill="none">
  <path d="M31.25 0C22.962 0 15.0134 3.2924 9.15291 9.15291C3.2924 15.0134 0 22.962 0 31.25V187.5C0 195.788 3.2924 203.737 9.15291 209.597C15.0134 215.458 22.962 218.75 31.25 218.75H218.75C227.038 218.75 234.987 215.458 240.847 209.597C246.708 203.737 250 195.788 250 187.5V31.25C250 22.962 246.708 15.0134 240.847 9.15291C234.987 3.2924 227.038 0 218.75 0H31.25ZM218.75 15.625C222.894 15.625 226.868 17.2712 229.799 20.2015C232.729 23.1317 234.375 27.106 234.375 31.25V132.812L175.359 102.391C173.894 101.657 172.235 101.402 170.617 101.663C168.999 101.924 167.504 102.687 166.344 103.844L108.375 161.812L66.8125 134.125C65.3119 133.126 63.5119 132.677 61.7178 132.853C59.9237 133.03 58.2458 133.821 56.9687 135.094L15.625 171.875V31.25C15.625 27.106 17.2712 23.1317 20.2015 20.2015C23.1317 17.2712 27.106 15.625 31.25 15.625H218.75Z" fill="#525252"/>
</svg>